<?xml version="1.0" standalone="no"?>
<!DOCTYPE svg PUBLIC "-//W3C//DTD SVG 20010904//EN"
 "http://www.w3.org/TR/2001/REC-SVG-20010904/DTD/svg10.dtd">
<svg version="1.0" xmlns="http://www.w3.org/2000/svg"
 width="512.000000pt" height="512.000000pt" viewBox="0 0 512.000000 512.000000"
 preserveAspectRatio="xMidYMid meet">

<g transform="translate(0.000000,512.000000) scale(0.100000,-0.100000)"
fill="#000000" stroke="none">
<path d="M448 4271 c-147 -47 -265 -170 -302 -316 -14 -52 -16 -220 -16 -1395
0 -1175 2 -1343 16 -1395 38 -148 156 -270 305 -316 59 -18 127 -19 2109 -19
1978 0 2050 1 2109 19 113 35 203 107 264 211 59 102 57 40 57 1500 0 1460 2
1398 -57 1500 -61 104 -151 176 -264 211 -59 18 -130 19 -2112 18 -1962 0
-2055 -1 -2109 -18z m4146 -243 c58 -18 120 -82 134 -140 7 -26 12 -85 12
-132 l0 -86 -2180 0 -2180 0 0 86 c0 119 15 169 64 219 23 22 57 46 76 52 53
17 4017 18 4074 1z m136 -868 l0 -250 -2170 0 -2170 0 0 250 0 250 2170 0
2170 0 0 -250z m8 -1185 c2 -487 0 -695 -8 -734 -15 -66 -73 -130 -136 -149
-60 -18 -4008 -18 -4068 0 -58 18 -120 82 -134 140 -13 51 -18 1409 -5 1421 3
4 983 6 2177 5 l2171 -3 3 -680z"/>
<path d="M925 1790 c-11 -4 -30 -19 -43 -32 -64 -69 -38 -173 51 -207 41 -16
221 -14 261 3 70 29 102 108 69 172 -31 61 -69 74 -203 73 -63 0 -124 -4 -135
-9z"/>
<path d="M1694 1781 c-46 -28 -64 -59 -64 -112 0 -32 7 -55 22 -74 42 -54 52
-55 505 -55 466 0 464 0 510 69 28 41 29 75 5 120 -38 71 -36 71 -517 71 -406
0 -432 -1 -461 -19z"/>
</g>
</svg>
