<?xml version="1.0" standalone="no"?>
<!DOCTYPE svg PUBLIC "-//W3C//DTD SVG 20010904//EN"
 "http://www.w3.org/TR/2001/REC-SVG-20010904/DTD/svg10.dtd">
<svg version="1.0" xmlns="http://www.w3.org/2000/svg"
 width="512.000000pt" height="512.000000pt" viewBox="0 0 512.000000 512.000000"
 preserveAspectRatio="xMidYMid meet">

<g transform="translate(0.000000,512.000000) scale(0.100000,-0.100000)"
fill="#000000" stroke="none">
<path d="M1218 4991 l-33 -29 -3 -116 -4 -116 -337 0 c-202 0 -351 -4 -374
-11 -72 -20 -72 -20 -75 -411 l-3 -349 -145 -237 -145 -237 3 -170 c3 -164 4
-172 32 -230 39 -79 111 -149 191 -187 l65 -30 0 -1283 0 -1283 -159 -4 c-144
-3 -162 -5 -188 -24 -56 -42 -52 -128 8 -159 42 -22 4976 -22 5018 0 60 31 64
117 8 159 -26 19 -44 21 -188 24 l-159 4 0 1283 0 1283 65 30 c80 38 152 108
191 187 28 58 29 66 32 230 l3 170 -145 237 -145 237 -3 349 c-3 391 -3 391
-75 411 -23 7 -172 11 -375 11 l-338 0 0 116 0 116 -31 29 -31 29 -1314 0
-1314 0 -32 -29z m2522 -366 l0 -195 -1180 0 -1180 0 0 195 0 195 1180 0 1180
0 0 -195z m-2560 -195 c0 -123 14 -164 64 -185 30 -13 215 -15 1322 -15 1404
0 1336 -3 1363 56 6 14 11 74 11 134 l0 110 295 0 295 0 0 -245 0 -245 -1970
0 -1970 0 0 245 0 245 295 0 295 0 0 -100z m-322 -598 c-1 -5 -32 -70 -68
-145 l-64 -137 -178 0 -178 0 88 145 87 145 158 0 c87 0 157 -4 155 -8z m483
-134 l-37 -143 -178 -3 c-208 -3 -195 -24 -104 164 l60 124 148 0 148 0 -37
-142z m555 60 c-3 -46 -9 -111 -12 -145 l-6 -63 -185 0 -185 0 6 28 c4 15 21
80 38 145 l31 117 160 0 160 0 -7 -82z m574 -63 l0 -145 -196 0 -197 0 7 93
c4 50 9 116 12 145 l6 52 184 0 184 0 0 -145z m564 68 c3 -43 9 -108 12 -145
l6 -68 -196 0 -196 0 0 145 0 145 184 0 184 0 6 -77z m546 -55 c18 -73 35
-139 38 -145 3 -10 -37 -13 -181 -13 l-185 0 -5 33 c-3 17 -9 83 -13 145 l-7
112 160 0 159 0 34 -132z m533 -8 c37 -78 67 -143 67 -145 0 -3 -80 -5 -178
-5 l-177 0 -34 133 c-19 72 -36 138 -39 145 -3 9 30 12 145 12 l150 0 66 -140z
m549 -5 l88 -145 -174 0 -173 0 -66 140 c-37 78 -67 143 -67 145 0 3 69 5 153
5 l152 0 87 -145z m-3972 -392 c-1 -151 -76 -243 -200 -243 -122 0 -200 92
-200 238 l0 52 200 0 200 0 0 -47z m590 -10 c0 -110 -34 -174 -113 -215 -56
-28 -140 -22 -196 15 -55 36 -81 92 -88 183 l-6 74 202 0 201 0 0 -57z m590
-11 c0 -82 -26 -141 -83 -186 -35 -28 -46 -31 -111 -31 -62 0 -78 4 -113 27
-57 38 -83 95 -83 186 l0 72 195 0 195 0 0 -68z m590 0 c0 -82 -26 -141 -83
-186 -35 -28 -46 -31 -111 -31 -60 0 -78 4 -108 24 -63 43 -83 84 -87 178 l-3
83 196 0 196 0 0 -68z m589 -15 c-4 -94 -24 -135 -87 -178 -30 -20 -48 -24
-108 -24 -65 0 -76 3 -111 31 -57 45 -83 104 -83 186 l0 68 196 0 196 0 -3
-83z m591 11 c0 -91 -26 -148 -83 -186 -35 -23 -51 -27 -113 -27 -65 0 -76 3
-111 31 -57 45 -83 104 -83 186 l0 68 195 0 195 0 0 -72z m597 -2 c-7 -91 -33
-147 -88 -183 -56 -37 -140 -43 -196 -15 -79 41 -113 105 -113 215 l0 57 201
0 202 0 -6 -74z m593 22 c0 -146 -78 -238 -200 -238 -124 0 -199 92 -200 243
l0 47 200 0 200 0 0 -52z m-3994 -348 c74 -61 141 -84 249 -84 76 1 99 5 149
28 33 14 79 42 103 62 l44 36 37 -34 c140 -127 365 -127 513 0 l39 34 38 -34
c141 -127 364 -127 513 0 l39 34 39 -34 c149 -127 372 -127 513 0 l38 34 39
-34 c148 -127 373 -127 513 0 l37 34 44 -36 c24 -20 70 -48 103 -62 50 -23 73
-27 149 -28 108 0 175 23 248 84 l49 40 42 -35 c23 -19 68 -46 99 -60 l57 -26
0 -695 0 -694 -1970 0 -1970 0 0 694 0 694 63 30 c34 16 78 44 97 60 19 17 36
31 36 32 1 0 24 -18 50 -40z m3694 -2160 l0 -490 -1970 0 -1970 0 0 490 0 490
1970 0 1970 0 0 -490z"/>
</g>
</svg>
