<?xml version="1.0" standalone="no"?>
<!DOCTYPE svg PUBLIC "-//W3C//DTD SVG 20010904//EN"
 "http://www.w3.org/TR/2001/REC-SVG-20010904/DTD/svg10.dtd">
<svg version="1.0" xmlns="http://www.w3.org/2000/svg"
 width="400.000000pt" height="361.000000pt" viewBox="0 0 400.000000 361.000000"
 preserveAspectRatio="xMidYMid meet">

<g transform="translate(0.000000,361.000000) scale(0.100000,-0.100000)"
fill="#000000" stroke="none">
<path d="M1189 3596 c-82 -29 -133 -73 -172 -146 l-24 -45 -109 -6 c-129 -7
-183 -28 -254 -99 -76 -75 -85 -103 -168 -547 l-77 -408 -95 -6 c-114 -6 -172
-30 -224 -91 -45 -52 -66 -115 -66 -199 0 -143 61 -229 198 -278 l47 -17 66
-740 c47 -525 71 -755 83 -792 23 -69 100 -153 174 -189 l57 -28 1375 0 1375
0 57 28 c71 35 150 119 173 184 11 34 36 271 83 795 l66 748 32 6 c53 10 131
61 162 107 42 60 55 112 50 198 -4 85 -26 137 -78 189 -57 57 -102 73 -211 78
l-95 4 -76 410 c-49 259 -84 425 -97 452 -33 67 -84 119 -153 156 -59 32 -70
35 -174 38 l-111 4 -16 37 c-25 56 -70 104 -128 136 l-54 30 -790 2 c-629 2
-797 0 -826 -11z m-170 -402 c14 -25 44 -63 68 -84 83 -73 46 -70 913 -70 868
0 830 -3 914 71 24 22 54 59 66 84 l22 45 84 0 c65 0 94 -5 124 -20 39 -20 83
-69 94 -105 5 -17 146 -762 146 -772 0 -1 -652 -3 -1450 -3 -797 0 -1450 2
-1450 4 0 27 145 767 154 790 32 74 94 106 206 106 l85 0 24 -46z m888 -1699
c32 -14 65 -33 75 -42 16 -15 20 -15 36 -1 35 31 123 68 179 76 178 23 339
-61 416 -217 30 -61 32 -72 32 -171 0 -98 -2 -110 -33 -174 -82 -175 -262
-360 -508 -527 -97 -65 -113 -65 -223 11 -244 167 -411 342 -494 518 -30 62
-32 75 -32 172 0 93 3 112 27 162 93 199 326 284 525 193z"/>
</g>
</svg>
